<?xml version="1.0" standalone="no"?>
<!DOCTYPE svg PUBLIC "-//W3C//DTD SVG 20010904//EN"
 "http://www.w3.org/TR/2001/REC-SVG-20010904/DTD/svg10.dtd">
<svg version="1.0" xmlns="http://www.w3.org/2000/svg"
 width="70.000000pt" height="70.000000pt" viewBox="0 0 70.000000 70.000000"
 preserveAspectRatio="xMidYMid meet">
<metadata>
Created by potrace 1.11, written by Peter Selinger 2001-2013
</metadata>
<g transform="translate(0.000000,70.000000) scale(0.100000,-0.100000)"
fill="#000000" stroke="none">
<path d="M70 605 c0 -10 11 -15 35 -15 l35 0 0 -235 0 -235 -35 0 c-24 0 -35
-5 -35 -15 0 -12 19 -15 110 -15 91 0 110 3 110 15 0 10 -11 15 -35 15 l-35 0
0 115 0 115 65 0 65 0 0 -30 c0 -20 -5 -30 -15 -30 -12 0 -15 -18 -15 -100 0
-82 3 -100 15 -100 12 0 15 16 16 83 l0 82 24 -52 c13 -29 27 -53 30 -53 3 0
17 24 30 53 l24 52 0 -82 c1 -67 4 -83 16 -83 12 0 15 13 15 60 0 57 1 60 25
60 24 0 25 -3 25 -60 0 -47 3 -60 15 -60 12 0 15 13 15 60 0 57 1 60 25 60 16
0 25 6 25 15 0 9 -9 15 -25 15 -20 0 -25 5 -25 25 0 16 -6 25 -15 25 -9 0 -15
-9 -15 -25 0 -20 -5 -25 -25 -25 -20 0 -25 5 -25 25 0 20 -5 25 -25 25 -15 0
-25 -6 -25 -15 0 -8 -8 -30 -17 -50 -25 -53 -33 -27 -33 118 0 120 -1 127 -20
127 -17 0 -20 -7 -20 -45 l0 -45 -65 0 -65 0 0 105 0 105 105 0 105 0 0 -50
c0 -43 3 -50 20 -50 18 0 20 7 20 65 l0 65 -200 0 c-171 0 -200 -2 -200 -15z"/>
</g>
</svg>
